<svg width="1018" height="650" viewBox="0 0 1018 650" fill="none" xmlns="http://www.w3.org/2000/svg">
<circle cx="509" cy="325" r="325" fill="black"/>
<g filter="url(#filter0_dd_1_5600)">
<path d="M247.165 164.286H270.975V188.095H247.165V164.286ZM270.975 164.286H294.784V188.095H270.975V164.286ZM294.784 164.286H318.594V188.095H294.784V164.286ZM318.594 164.286H342.403V188.095H318.594V164.286ZM342.403 164.286H366.213V188.095H342.403V164.286ZM366.213 164.286H390.022V188.095H366.213V164.286ZM390.022 164.286H413.832V188.095H390.022V164.286ZM413.832 164.286H437.641V188.095H413.832V164.286ZM294.784 188.095H318.594V211.905H294.784V188.095ZM318.594 188.095H342.403V211.905H318.594V188.095ZM342.403 188.095H366.213V211.905H342.403V188.095ZM366.213 188.095H390.022V211.905H366.213V188.095ZM390.022 188.095H413.832V211.905H390.022V188.095ZM413.832 188.095H437.641V211.905H413.832V188.095ZM294.784 235.714H318.594V259.524H294.784V235.714ZM318.594 235.714H342.403V259.524H318.594V235.714ZM318.594 259.524H342.403V283.333H318.594V259.524ZM294.784 259.524H318.594V283.333H294.784V259.524ZM294.784 307.143H318.594V330.952H294.784V307.143ZM318.594 307.143H342.403V330.952H318.594V307.143ZM318.594 330.952H342.403V354.762H318.594V330.952ZM294.784 354.762H318.594V378.571H294.784V354.762ZM318.594 354.762H342.403V378.571H318.594V354.762ZM247.165 426.19H270.975V450H247.165V426.19ZM247.165 259.524H270.975V283.333H247.165V259.524ZM270.975 259.524H294.784V283.333H270.975V259.524ZM294.784 283.333H318.594V307.143H294.784V283.333ZM318.594 283.333H342.403V307.143H318.594V283.333ZM247.165 307.143H270.975V330.952H247.165V307.143ZM270.975 307.143H294.784V330.952H270.975V307.143ZM294.784 330.952H318.594V354.762H294.784V330.952ZM270.975 402.381H294.784V426.19H270.975V402.381ZM294.784 402.381H318.594V426.19H294.784V402.381ZM318.594 402.381H342.403V426.19H318.594V402.381ZM342.403 402.381H366.213V426.19H342.403V402.381ZM366.213 402.381H390.022V426.19H366.213V402.381ZM390.022 402.381H413.832V426.19H390.022V402.381ZM413.832 402.381H437.641V426.19H413.832V402.381ZM318.594 426.19H342.403V450H318.594V426.19ZM342.403 426.19H366.213V450H342.403V426.19ZM366.213 426.19H390.022V450H366.213V426.19ZM390.022 426.19H413.832V450H390.022V426.19ZM366.213 354.762H390.022V378.571H366.213V354.762ZM366.213 330.952H390.022V354.762H366.213V330.952ZM366.213 307.143H390.022V330.952H366.213V307.143ZM366.213 283.333H390.022V307.143H366.213V283.333ZM366.213 259.524H390.022V283.333H366.213V259.524ZM366.213 235.714H390.022V259.524H366.213V235.714ZM366.213 211.905H390.022V235.714H366.213V211.905ZM437.641 211.905H461.451V235.714H437.641V211.905ZM437.641 235.714H461.451V259.524H437.641V235.714ZM437.641 259.524H461.451V283.333H437.641V259.524ZM437.641 283.333H461.451V307.143H437.641V283.333ZM437.641 307.143H461.451V330.952H437.641V307.143ZM437.641 330.952H461.451V354.762H437.641V330.952ZM461.451 211.905H485.26V235.714H461.451V211.905ZM461.451 235.714H485.26V259.524H461.451V235.714ZM461.451 259.524H485.26V283.333H461.451V259.524ZM461.451 283.333H485.26V307.143H461.451V283.333ZM461.451 307.143H485.26V330.952H461.451V307.143ZM437.641 164.286H461.451V188.095H437.641V164.286ZM437.641 188.095H461.451V211.905H437.641V188.095ZM461.451 188.095H485.26V211.905H461.451V188.095ZM437.641 354.762H461.451V378.571H437.641V354.762ZM461.451 354.762H485.26V378.571H461.451V354.762ZM461.451 330.952H485.26V354.762H461.451V330.952ZM437.641 378.571H461.451V402.381H437.641V378.571ZM508.884 188.095H532.693V211.905H508.884V188.095ZM532.693 164.286H556.503V188.095H532.693V164.286ZM556.503 164.286H580.312V188.095H556.503V164.286ZM556.503 188.095H580.312V211.905H556.503V188.095ZM580.312 188.095H604.122V211.905H580.312V188.095ZM604.122 164.286H627.931V188.095H604.122V164.286ZM627.931 188.095H651.741V211.905H627.931V188.095ZM651.741 188.095H675.55V211.905H651.741V188.095ZM699.36 188.095H723.169V211.905H699.36V188.095ZM675.55 211.905H699.36V235.714H675.55V211.905ZM675.55 259.524H699.36V283.333H675.55V259.524ZM675.55 283.333H699.36V307.143H675.55V283.333ZM675.55 307.143H699.36V330.952H675.55V307.143ZM675.55 330.952H699.36V354.762H675.55V330.952ZM675.55 354.762H699.36V378.571H675.55V354.762ZM675.55 378.571H699.36V402.381H675.55V378.571ZM675.55 235.714H699.36V259.524H675.55V235.714ZM627.931 211.905H651.741V235.714H627.931V211.905ZM604.122 211.905H627.931V235.714H604.122V211.905ZM627.931 235.714H651.741V259.524H627.931V235.714ZM604.122 235.714H627.931V259.524H604.122V235.714ZM604.122 259.524H627.931V283.333H604.122V259.524ZM627.931 259.524H651.741V283.333H627.931V259.524ZM627.931 283.333H651.741V307.143H627.931V283.333ZM604.122 283.333H627.931V307.143H604.122V283.333ZM604.122 307.143H627.931V330.952H604.122V307.143ZM627.931 330.952H651.741V354.762H627.931V330.952ZM627.931 307.143H651.741V330.952H627.931V307.143ZM604.122 330.952H627.931V354.762H604.122V330.952ZM604.122 354.762H627.931V378.571H604.122V354.762ZM627.931 354.762H651.741V378.571H627.931V354.762ZM580.312 259.524H604.122V283.333H580.312V259.524ZM556.503 259.524H580.312V283.333H556.503V259.524ZM580.312 307.143H604.122V330.952H580.312V307.143ZM556.503 307.143H580.312V330.952H556.503V307.143ZM675.55 402.381H699.36V426.19H675.55V402.381ZM651.741 402.381H675.55V426.19H651.741V402.381ZM627.931 402.381H651.741V426.19H627.931V402.381ZM604.122 402.381H627.931V426.19H604.122V402.381ZM580.312 402.381H604.122V426.19H580.312V402.381ZM556.503 426.19H580.312V450H556.503V426.19ZM651.741 426.19H675.55V450H651.741V426.19ZM627.931 426.19H651.741V450H627.931V426.19ZM604.122 426.19H627.931V450H604.122V426.19ZM699.36 402.381H723.169V426.19H699.36V402.381ZM723.169 402.381H746.979V426.19H723.169V402.381ZM746.979 402.381H770.789V426.19H746.979V402.381ZM699.36 426.19H723.169V450H699.36V426.19ZM723.169 426.19H746.979V450H723.169V426.19ZM770.789 378.571H794.598V402.381H770.789V378.571Z" fill="white"/>
</g>
<defs>
<filter id="filter0_dd_1_5600" x="243.165" y="161.286" width="555.433" height="293.714" filterUnits="userSpaceOnUse" color-interpolation-filters="sRGB">
<feFlood flood-opacity="0" result="BackgroundImageFix"/>
<feColorMatrix in="SourceAlpha" type="matrix" values="0 0 0 0 0 0 0 0 0 0 0 0 0 0 0 0 0 0 127 0" result="hardAlpha"/>
<feMorphology radius="1" operator="dilate" in="SourceAlpha" result="effect1_dropShadow_1_5600"/>
<feOffset dy="1"/>
<feGaussianBlur stdDeviation="1.5"/>
<feColorMatrix type="matrix" values="0 0 0 0 0 0 0 0 0 0 0 0 0 0 0 0 0 0 0.15 0"/>
<feBlend mode="normal" in2="BackgroundImageFix" result="effect1_dropShadow_1_5600"/>
<feColorMatrix in="SourceAlpha" type="matrix" values="0 0 0 0 0 0 0 0 0 0 0 0 0 0 0 0 0 0 127 0" result="hardAlpha"/>
<feOffset dy="1"/>
<feGaussianBlur stdDeviation="1"/>
<feColorMatrix type="matrix" values="0 0 0 0 0 0 0 0 0 0 0 0 0 0 0 0 0 0 0.3 0"/>
<feBlend mode="normal" in2="effect1_dropShadow_1_5600" result="effect2_dropShadow_1_5600"/>
<feBlend mode="normal" in="SourceGraphic" in2="effect2_dropShadow_1_5600" result="shape"/>
</filter>
</defs>
</svg>
