<svg width="709" height="337" viewBox="0 0 709 337" fill="none" xmlns="http://www.w3.org/2000/svg">
<g filter="url(#filter0_dd_1_5600)">
<path d="M92.5745 16.2857H116.384V40.0952H92.5745V16.2857ZM116.384 16.2857H140.194V40.0952H116.384V16.2857ZM140.194 16.2857H164.003V40.0952H140.194V16.2857ZM164.003 16.2857H187.813V40.0952H164.003V16.2857ZM187.813 16.2857H211.622V40.0952H187.813V16.2857ZM211.622 16.2857H235.432V40.0952H211.622V16.2857ZM235.432 16.2857H259.241V40.0952H235.432V16.2857ZM259.241 16.2857H283.051V40.0952H259.241V16.2857ZM140.194 40.0952H164.003V63.9048H140.194V40.0952ZM164.003 40.0952H187.813V63.9048H164.003V40.0952ZM187.813 40.0952H211.622V63.9048H187.813V40.0952ZM211.622 40.0952H235.432V63.9048H211.622V40.0952ZM235.432 40.0952H259.241V63.9048H235.432V40.0952ZM259.241 40.0952H283.051V63.9048H259.241V40.0952ZM140.194 87.7143H164.003V111.524H140.194V87.7143ZM164.003 87.7143H187.813V111.524H164.003V87.7143ZM164.003 111.524H187.813V135.333H164.003V111.524ZM140.194 111.524H164.003V135.333H140.194V111.524ZM140.194 159.143H164.003V182.952H140.194V159.143ZM164.003 159.143H187.813V182.952H164.003V159.143ZM164.003 182.952H187.813V206.762H164.003V182.952ZM140.194 206.762H164.003V230.571H140.194V206.762ZM164.003 206.762H187.813V230.571H164.003V206.762ZM92.5745 278.19H116.384V302H92.5745V278.19ZM92.5745 111.524H116.384V135.333H92.5745V111.524ZM116.384 111.524H140.194V135.333H116.384V111.524ZM140.194 135.333H164.003V159.143H140.194V135.333ZM164.003 135.333H187.813V159.143H164.003V135.333ZM92.5745 159.143H116.384V182.952H92.5745V159.143ZM116.384 159.143H140.194V182.952H116.384V159.143ZM140.194 182.952H164.003V206.762H140.194V182.952ZM116.384 254.381H140.194V278.19H116.384V254.381ZM140.194 254.381H164.003V278.19H140.194V254.381ZM164.003 254.381H187.813V278.19H164.003V254.381ZM187.813 254.381H211.622V278.19H187.813V254.381ZM211.622 254.381H235.432V278.19H211.622V254.381ZM235.432 254.381H259.241V278.19H235.432V254.381ZM259.241 254.381H283.051V278.19H259.241V254.381ZM164.003 278.19H187.813V302H164.003V278.19ZM187.813 278.19H211.622V302H187.813V278.19ZM211.622 278.19H235.432V302H211.622V278.19ZM235.432 278.19H259.241V302H235.432V278.19ZM211.622 206.762H235.432V230.571H211.622V206.762ZM211.622 182.952H235.432V206.762H211.622V182.952ZM211.622 159.143H235.432V182.952H211.622V159.143ZM211.622 135.333H235.432V159.143H211.622V135.333ZM211.622 111.524H235.432V135.333H211.622V111.524ZM211.622 87.7143H235.432V111.524H211.622V87.7143ZM211.622 63.9048H235.432V87.7143H211.622V63.9048ZM283.051 63.9048H306.86V87.7143H283.051V63.9048ZM283.051 87.7143H306.86V111.524H283.051V87.7143ZM283.051 111.524H306.86V135.333H283.051V111.524ZM283.051 135.333H306.86V159.143H283.051V135.333ZM283.051 159.143H306.86V182.952H283.051V159.143ZM283.051 182.952H306.86V206.762H283.051V182.952ZM306.86 63.9048H330.67V87.7143H306.86V63.9048ZM306.86 87.7143H330.67V111.524H306.86V87.7143ZM306.86 111.524H330.67V135.333H306.86V111.524ZM306.86 135.333H330.67V159.143H306.86V135.333ZM306.86 159.143H330.67V182.952H306.86V159.143ZM283.051 16.2857H306.86V40.0952H283.051V16.2857ZM283.051 40.0952H306.86V63.9048H283.051V40.0952ZM306.86 40.0952H330.67V63.9048H306.86V40.0952ZM283.051 206.762H306.86V230.571H283.051V206.762ZM306.86 206.762H330.67V230.571H306.86V206.762ZM306.86 182.952H330.67V206.762H306.86V182.952ZM283.051 230.571H306.86V254.381H283.051V230.571ZM354.293 40.0952H378.103V63.9048H354.293V40.0952ZM378.103 16.2857H401.912V40.0952H378.103V16.2857ZM401.912 16.2857H425.722V40.0952H401.912V16.2857ZM401.912 40.0952H425.722V63.9048H401.912V40.0952ZM425.722 40.0952H449.531V63.9048H425.722V40.0952ZM449.531 16.2857H473.341V40.0952H449.531V16.2857ZM473.341 40.0952H497.15V63.9048H473.341V40.0952ZM497.15 40.0952H520.96V63.9048H497.15V40.0952ZM544.769 40.0952H568.579V63.9048H544.769V40.0952ZM520.96 63.9048H544.769V87.7143H520.96V63.9048ZM520.96 111.524H544.769V135.333H520.96V111.524ZM520.96 135.333H544.769V159.143H520.96V135.333ZM520.96 159.143H544.769V182.952H520.96V159.143ZM520.96 182.952H544.769V206.762H520.96V182.952ZM520.96 206.762H544.769V230.571H520.96V206.762ZM520.96 230.571H544.769V254.381H520.96V230.571ZM520.96 87.7143H544.769V111.524H520.96V87.7143ZM473.341 63.9048H497.15V87.7143H473.341V63.9048ZM449.531 63.9048H473.341V87.7143H449.531V63.9048ZM473.341 87.7143H497.15V111.524H473.341V87.7143ZM449.531 87.7143H473.341V111.524H449.531V87.7143ZM449.531 111.524H473.341V135.333H449.531V111.524ZM473.341 111.524H497.15V135.333H473.341V111.524ZM473.341 135.333H497.15V159.143H473.341V135.333ZM449.531 135.333H473.341V159.143H449.531V135.333ZM449.531 159.143H473.341V182.952H449.531V159.143ZM473.341 182.952H497.15V206.762H473.341V182.952ZM473.341 159.143H497.15V182.952H473.341V159.143ZM449.531 182.952H473.341V206.762H449.531V182.952ZM449.531 206.762H473.341V230.571H449.531V206.762ZM473.341 206.762H497.15V230.571H473.341V206.762ZM425.722 111.524H449.531V135.333H425.722V111.524ZM401.912 111.524H425.722V135.333H401.912V111.524ZM425.722 159.143H449.531V182.952H425.722V159.143ZM401.912 159.143H425.722V182.952H401.912V159.143ZM520.96 254.381H544.769V278.19H520.96V254.381ZM497.15 254.381H520.96V278.19H497.15V254.381ZM473.341 254.381H497.15V278.19H473.341V254.381ZM449.531 254.381H473.341V278.19H449.531V254.381ZM425.722 254.381H449.531V278.19H425.722V254.381ZM401.912 278.19H425.722V302H401.912V278.19ZM497.15 278.19H520.96V302H497.15V278.19ZM473.341 278.19H497.15V302H473.341V278.19ZM449.531 278.19H473.341V302H449.531V278.19ZM544.769 254.381H568.579V278.19H544.769V254.381ZM568.579 254.381H592.389V278.19H568.579V254.381ZM592.389 254.381H616.198V278.19H592.389V254.381ZM544.769 278.19H568.579V302H544.769V278.19ZM568.579 278.19H592.389V302H568.579V278.19ZM616.198 230.571H640.008V254.381H616.198V230.571Z" fill="black"/>
</g>
<defs>
<filter id="filter0_dd_1_5600" x="88.5745" y="13.2857" width="555.433" height="293.714" filterUnits="userSpaceOnUse" color-interpolation-filters="sRGB">
<feFlood flood-opacity="0" result="BackgroundImageFix"/>
<feColorMatrix in="SourceAlpha" type="matrix" values="0 0 0 0 0 0 0 0 0 0 0 0 0 0 0 0 0 0 127 0" result="hardAlpha"/>
<feMorphology radius="1" operator="dilate" in="SourceAlpha" result="effect1_dropShadow_1_5600"/>
<feOffset dy="1"/>
<feGaussianBlur stdDeviation="1.5"/>
<feColorMatrix type="matrix" values="0 0 0 0 0 0 0 0 0 0 0 0 0 0 0 0 0 0 0.15 0"/>
<feBlend mode="normal" in2="BackgroundImageFix" result="effect1_dropShadow_1_5600"/>
<feColorMatrix in="SourceAlpha" type="matrix" values="0 0 0 0 0 0 0 0 0 0 0 0 0 0 0 0 0 0 127 0" result="hardAlpha"/>
<feOffset dy="1"/>
<feGaussianBlur stdDeviation="1"/>
<feColorMatrix type="matrix" values="0 0 0 0 0 0 0 0 0 0 0 0 0 0 0 0 0 0 0.3 0"/>
<feBlend mode="normal" in2="effect1_dropShadow_1_5600" result="effect2_dropShadow_1_5600"/>
<feBlend mode="normal" in="SourceGraphic" in2="effect2_dropShadow_1_5600" result="shape"/>
</filter>
</defs>
</svg>
