<svg width="709" height="332" viewBox="0 0 709 332" fill="none" xmlns="http://www.w3.org/2000/svg">
<g filter="url(#filter0_dd_1_5600)">
<path d="M92.5745 11.2857H116.384V35.0952H92.5745V11.2857ZM116.384 11.2857H140.194V35.0952H116.384V11.2857ZM140.194 11.2857H164.003V35.0952H140.194V11.2857ZM164.003 11.2857H187.813V35.0952H164.003V11.2857ZM187.813 11.2857H211.622V35.0952H187.813V11.2857ZM211.622 11.2857H235.432V35.0952H211.622V11.2857ZM235.432 11.2857H259.241V35.0952H235.432V11.2857ZM259.241 11.2857H283.051V35.0952H259.241V11.2857ZM140.194 35.0952H164.003V58.9048H140.194V35.0952ZM164.003 35.0952H187.813V58.9048H164.003V35.0952ZM187.813 35.0952H211.622V58.9048H187.813V35.0952ZM211.622 35.0952H235.432V58.9048H211.622V35.0952ZM235.432 35.0952H259.241V58.9048H235.432V35.0952ZM259.241 35.0952H283.051V58.9048H259.241V35.0952ZM140.194 82.7143H164.003V106.524H140.194V82.7143ZM164.003 82.7143H187.813V106.524H164.003V82.7143ZM164.003 106.524H187.813V130.333H164.003V106.524ZM140.194 106.524H164.003V130.333H140.194V106.524ZM140.194 154.143H164.003V177.952H140.194V154.143ZM164.003 154.143H187.813V177.952H164.003V154.143ZM164.003 177.952H187.813V201.762H164.003V177.952ZM140.194 201.762H164.003V225.571H140.194V201.762ZM164.003 201.762H187.813V225.571H164.003V201.762ZM92.5745 273.19H116.384V297H92.5745V273.19ZM92.5745 106.524H116.384V130.333H92.5745V106.524ZM116.384 106.524H140.194V130.333H116.384V106.524ZM140.194 130.333H164.003V154.143H140.194V130.333ZM164.003 130.333H187.813V154.143H164.003V130.333ZM92.5745 154.143H116.384V177.952H92.5745V154.143ZM116.384 154.143H140.194V177.952H116.384V154.143ZM140.194 177.952H164.003V201.762H140.194V177.952ZM116.384 249.381H140.194V273.19H116.384V249.381ZM140.194 249.381H164.003V273.19H140.194V249.381ZM164.003 249.381H187.813V273.19H164.003V249.381ZM187.813 249.381H211.622V273.19H187.813V249.381ZM211.622 249.381H235.432V273.19H211.622V249.381ZM235.432 249.381H259.241V273.19H235.432V249.381ZM259.241 249.381H283.051V273.19H259.241V249.381ZM164.003 273.19H187.813V297H164.003V273.19ZM187.813 273.19H211.622V297H187.813V273.19ZM211.622 273.19H235.432V297H211.622V273.19ZM235.432 273.19H259.241V297H235.432V273.19ZM211.622 201.762H235.432V225.571H211.622V201.762ZM211.622 177.952H235.432V201.762H211.622V177.952ZM211.622 154.143H235.432V177.952H211.622V154.143ZM211.622 130.333H235.432V154.143H211.622V130.333ZM211.622 106.524H235.432V130.333H211.622V106.524ZM211.622 82.7143H235.432V106.524H211.622V82.7143ZM211.622 58.9048H235.432V82.7143H211.622V58.9048ZM283.051 58.9048H306.86V82.7143H283.051V58.9048ZM283.051 82.7143H306.86V106.524H283.051V82.7143ZM283.051 106.524H306.86V130.333H283.051V106.524ZM283.051 130.333H306.86V154.143H283.051V130.333ZM283.051 154.143H306.86V177.952H283.051V154.143ZM283.051 177.952H306.86V201.762H283.051V177.952ZM306.86 58.9048H330.67V82.7143H306.86V58.9048ZM306.86 82.7143H330.67V106.524H306.86V82.7143ZM306.86 106.524H330.67V130.333H306.86V106.524ZM306.86 130.333H330.67V154.143H306.86V130.333ZM306.86 154.143H330.67V177.952H306.86V154.143ZM283.051 11.2857H306.86V35.0952H283.051V11.2857ZM283.051 35.0952H306.86V58.9048H283.051V35.0952ZM306.86 35.0952H330.67V58.9048H306.86V35.0952ZM283.051 201.762H306.86V225.571H283.051V201.762ZM306.86 201.762H330.67V225.571H306.86V201.762ZM306.86 177.952H330.67V201.762H306.86V177.952ZM283.051 225.571H306.86V249.381H283.051V225.571ZM354.293 35.0952H378.103V58.9048H354.293V35.0952ZM378.103 11.2857H401.912V35.0952H378.103V11.2857ZM401.912 11.2857H425.722V35.0952H401.912V11.2857ZM401.912 35.0952H425.722V58.9048H401.912V35.0952ZM425.722 35.0952H449.531V58.9048H425.722V35.0952ZM449.531 11.2857H473.341V35.0952H449.531V11.2857ZM473.341 35.0952H497.15V58.9048H473.341V35.0952ZM497.15 35.0952H520.96V58.9048H497.15V35.0952ZM544.769 35.0952H568.579V58.9048H544.769V35.0952ZM520.96 58.9048H544.769V82.7143H520.96V58.9048ZM520.96 106.524H544.769V130.333H520.96V106.524ZM520.96 130.333H544.769V154.143H520.96V130.333ZM520.96 154.143H544.769V177.952H520.96V154.143ZM520.96 177.952H544.769V201.762H520.96V177.952ZM520.96 201.762H544.769V225.571H520.96V201.762ZM520.96 225.571H544.769V249.381H520.96V225.571ZM520.96 82.7143H544.769V106.524H520.96V82.7143ZM473.341 58.9048H497.15V82.7143H473.341V58.9048ZM449.531 58.9048H473.341V82.7143H449.531V58.9048ZM473.341 82.7143H497.15V106.524H473.341V82.7143ZM449.531 82.7143H473.341V106.524H449.531V82.7143ZM449.531 106.524H473.341V130.333H449.531V106.524ZM473.341 106.524H497.15V130.333H473.341V106.524ZM473.341 130.333H497.15V154.143H473.341V130.333ZM449.531 130.333H473.341V154.143H449.531V130.333ZM449.531 154.143H473.341V177.952H449.531V154.143ZM473.341 177.952H497.15V201.762H473.341V177.952ZM473.341 154.143H497.15V177.952H473.341V154.143ZM449.531 177.952H473.341V201.762H449.531V177.952ZM449.531 201.762H473.341V225.571H449.531V201.762ZM473.341 201.762H497.15V225.571H473.341V201.762ZM425.722 106.524H449.531V130.333H425.722V106.524ZM401.912 106.524H425.722V130.333H401.912V106.524ZM425.722 154.143H449.531V177.952H425.722V154.143ZM401.912 154.143H425.722V177.952H401.912V154.143ZM520.96 249.381H544.769V273.19H520.96V249.381ZM497.15 249.381H520.96V273.19H497.15V249.381ZM473.341 249.381H497.15V273.19H473.341V249.381ZM449.531 249.381H473.341V273.19H449.531V249.381ZM425.722 249.381H449.531V273.19H425.722V249.381ZM401.912 273.19H425.722V297H401.912V273.19ZM497.15 273.19H520.96V297H497.15V273.19ZM473.341 273.19H497.15V297H473.341V273.19ZM449.531 273.19H473.341V297H449.531V273.19ZM544.769 249.381H568.579V273.19H544.769V249.381ZM568.579 249.381H592.389V273.19H568.579V249.381ZM592.389 249.381H616.198V273.19H592.389V249.381ZM544.769 273.19H568.579V297H544.769V273.19ZM568.579 273.19H592.389V297H568.579V273.19ZM616.198 225.571H640.008V249.381H616.198V225.571Z" fill="white"/>
</g>
<defs>
<filter id="filter0_dd_1_5600" x="88.5745" y="8.2857" width="555.433" height="293.714" filterUnits="userSpaceOnUse" color-interpolation-filters="sRGB">
<feFlood flood-opacity="0" result="BackgroundImageFix"/>
<feColorMatrix in="SourceAlpha" type="matrix" values="0 0 0 0 0 0 0 0 0 0 0 0 0 0 0 0 0 0 127 0" result="hardAlpha"/>
<feMorphology radius="1" operator="dilate" in="SourceAlpha" result="effect1_dropShadow_1_5600"/>
<feOffset dy="1"/>
<feGaussianBlur stdDeviation="1.5"/>
<feColorMatrix type="matrix" values="0 0 0 0 0 0 0 0 0 0 0 0 0 0 0 0 0 0 0.15 0"/>
<feBlend mode="normal" in2="BackgroundImageFix" result="effect1_dropShadow_1_5600"/>
<feColorMatrix in="SourceAlpha" type="matrix" values="0 0 0 0 0 0 0 0 0 0 0 0 0 0 0 0 0 0 127 0" result="hardAlpha"/>
<feOffset dy="1"/>
<feGaussianBlur stdDeviation="1"/>
<feColorMatrix type="matrix" values="0 0 0 0 0 0 0 0 0 0 0 0 0 0 0 0 0 0 0.3 0"/>
<feBlend mode="normal" in2="effect1_dropShadow_1_5600" result="effect2_dropShadow_1_5600"/>
<feBlend mode="normal" in="SourceGraphic" in2="effect2_dropShadow_1_5600" result="shape"/>
</filter>
</defs>
</svg>
