<svg width="600" height="491" viewBox="0 0 600 491" fill="none" xmlns="http://www.w3.org/2000/svg">
<rect x="0.5" y="0.5" width="599" height="490" fill="#626060" stroke="white"/>
<path d="M241.375 179.917L359.625 310.083M348.875 298.25H252.125C249.274 298.25 246.54 297.003 244.524 294.784C242.508 292.565 241.375 289.555 241.375 286.417V221.333C241.375 218.195 242.508 215.185 244.524 212.966C246.54 210.747 249.274 209.5 252.125 209.5H268.25M284.375 191.75H316.625L327.375 209.5H348.875C351.726 209.5 354.46 210.747 356.476 212.966C358.492 215.185 359.625 218.195 359.625 221.333V276.595M318.13 264.407C316.346 267.277 314.009 269.678 311.287 271.441C308.564 273.204 305.521 274.285 302.376 274.607C299.23 274.929 296.059 274.483 293.087 273.303C290.116 272.122 287.417 270.236 285.184 267.777C282.95 265.318 281.236 262.347 280.163 259.076C279.091 255.805 278.686 252.315 278.979 248.852C279.271 245.39 280.253 242.041 281.854 239.043C283.456 236.046 285.638 233.474 288.245 231.51" stroke="#1E1E1E" stroke-width="4" stroke-linecap="round" stroke-linejoin="round"/>
<path d="M40.5568 56.358C38.8693 56.358 37.3651 56.0682 36.044 55.4886C34.7315 54.9091 33.6875 54.1037 32.9119 53.0724C32.1449 52.0327 31.7273 50.8267 31.6591 49.4545H34.8807C34.9489 50.2983 35.2386 51.027 35.75 51.6406C36.2614 52.2457 36.9304 52.7145 37.7571 53.0469C38.5838 53.3793 39.5 53.5455 40.5057 53.5455C41.6307 53.5455 42.6278 53.3494 43.4972 52.9574C44.3665 52.5653 45.0483 52.0199 45.5426 51.321C46.0369 50.6222 46.2841 49.8125 46.2841 48.892C46.2841 47.929 46.0455 47.081 45.5682 46.348C45.0909 45.6065 44.392 45.027 43.4716 44.6094C42.5511 44.1918 41.4261 43.983 40.0966 43.983H38V41.1705H40.0966C41.1364 41.1705 42.0483 40.983 42.8324 40.608C43.625 40.233 44.2429 39.7045 44.6861 39.0227C45.1378 38.3409 45.3636 37.5398 45.3636 36.6193C45.3636 35.733 45.1676 34.9616 44.7756 34.3054C44.3835 33.6491 43.8295 33.1378 43.1136 32.7713C42.4063 32.4048 41.571 32.2216 40.608 32.2216C39.7045 32.2216 38.8523 32.3878 38.0511 32.7202C37.2585 33.044 36.6108 33.517 36.108 34.1392C35.6051 34.7528 35.3324 35.4943 35.2898 36.3636H32.2216C32.2727 34.9915 32.6861 33.7898 33.4616 32.7585C34.2372 31.7187 35.2514 30.9091 36.5043 30.3295C37.7656 29.75 39.1506 29.4602 40.6591 29.4602C42.2784 29.4602 43.6676 29.7884 44.8267 30.4446C45.9858 31.0923 46.8764 31.9489 47.4986 33.0142C48.1207 34.0795 48.4318 35.2301 48.4318 36.4659C48.4318 37.9403 48.044 39.1974 47.2685 40.2372C46.5014 41.277 45.4574 41.9972 44.1364 42.3977V42.6023C45.7898 42.875 47.081 43.5781 48.0099 44.7116C48.9389 45.8366 49.4034 47.2301 49.4034 48.892C49.4034 50.3153 49.0156 51.5938 48.2401 52.7273C47.473 53.8523 46.4247 54.7386 45.0952 55.3864C43.7656 56.0341 42.2528 56.358 40.5568 56.358Z" fill="white"/>
</svg>
