<svg width="600" height="491" viewBox="0 0 600 491" fill="none" xmlns="http://www.w3.org/2000/svg">
<rect x="0.5" y="0.5" width="599" height="490" fill="#626060" stroke="white"/>
<path d="M241.375 179.917L359.625 310.083M348.875 298.25H252.125C249.274 298.25 246.54 297.003 244.524 294.784C242.508 292.565 241.375 289.555 241.375 286.417V221.333C241.375 218.195 242.508 215.185 244.524 212.966C246.54 210.747 249.274 209.5 252.125 209.5H268.25M284.375 191.75H316.625L327.375 209.5H348.875C351.726 209.5 354.46 210.747 356.476 212.966C358.492 215.185 359.625 218.195 359.625 221.333V276.595M318.13 264.407C316.346 267.277 314.009 269.678 311.287 271.441C308.564 273.204 305.521 274.285 302.376 274.607C299.23 274.929 296.059 274.483 293.087 273.303C290.116 272.122 287.417 270.236 285.184 267.777C282.95 265.318 281.236 262.347 280.163 259.076C279.091 255.805 278.686 252.315 278.979 248.852C279.271 245.39 280.253 242.041 281.854 239.043C283.456 236.046 285.638 233.474 288.245 231.51" stroke="#1E1E1E" stroke-width="4" stroke-linecap="round" stroke-linejoin="round"/>
<path d="M40.9148 29.8182V56H37.7443V33.142H37.5909L31.1989 37.3864V34.1648L37.7443 29.8182H40.9148Z" fill="white"/>
</svg>
