<svg width="600" height="491" viewBox="0 0 600 491" fill="none" xmlns="http://www.w3.org/2000/svg">
<rect x="0.5" y="0.5" width="599" height="490" fill="#626060" stroke="white"/>
<path d="M241.375 179.917L359.625 310.083M348.875 298.25H252.125C249.274 298.25 246.54 297.003 244.524 294.784C242.508 292.565 241.375 289.555 241.375 286.417V221.333C241.375 218.195 242.508 215.185 244.524 212.966C246.54 210.747 249.274 209.5 252.125 209.5H268.25M284.375 191.75H316.625L327.375 209.5H348.875C351.726 209.5 354.46 210.747 356.476 212.966C358.492 215.185 359.625 218.195 359.625 221.333V276.595M318.13 264.407C316.346 267.277 314.009 269.678 311.287 271.441C308.564 273.204 305.521 274.285 302.376 274.607C299.23 274.929 296.059 274.483 293.087 273.303C290.116 272.122 287.417 270.236 285.184 267.777C282.95 265.318 281.236 262.347 280.163 259.076C279.091 255.805 278.686 252.315 278.979 248.852C279.271 245.39 280.253 242.041 281.854 239.043C283.456 236.046 285.638 233.474 288.245 231.51" stroke="#1E1E1E" stroke-width="4" stroke-linecap="round" stroke-linejoin="round"/>
<path d="M31.7102 56V53.6989L40.3523 44.2386C41.3665 43.1307 42.2017 42.1676 42.858 41.3494C43.5142 40.5227 44 39.7472 44.3153 39.0227C44.6392 38.2898 44.8011 37.5227 44.8011 36.7216C44.8011 35.8011 44.5795 35.0043 44.1364 34.331C43.7017 33.6577 43.1051 33.1378 42.3466 32.7713C41.5881 32.4048 40.7358 32.2216 39.7898 32.2216C38.7841 32.2216 37.9062 32.4304 37.1562 32.848C36.4148 33.2571 35.8395 33.8324 35.4304 34.5739C35.0298 35.3153 34.8295 36.1847 34.8295 37.1818H31.8125C31.8125 35.6477 32.1662 34.3011 32.8736 33.142C33.581 31.983 34.544 31.0795 35.7628 30.4318C36.9901 29.7841 38.3665 29.4602 39.892 29.4602C41.4261 29.4602 42.7855 29.7841 43.9702 30.4318C45.1548 31.0795 46.0838 31.9531 46.7571 33.0526C47.4304 34.152 47.767 35.375 47.767 36.7216C47.767 37.6847 47.5923 38.6264 47.2429 39.5469C46.902 40.4588 46.3054 41.4773 45.4531 42.6023C44.6094 43.7187 43.4375 45.0824 41.9375 46.6932L36.0568 52.983V53.1875H48.2273V56H31.7102Z" fill="white"/>
</svg>
